<svg width="494.2" height="121.55" enable-background="new 0 0 640 260" version="1.1" viewBox="0 0 494.2 121.55"
  xml:space="preserve" xmlns="http://www.w3.org/2000/svg">
  <style type="text/css">
    .st0 {
      fill: #FFFFFF;
    }
  </style>
  <path class="st0" d="m214.2 19.82h-15.83v26.9h-6.44v-32.65h22.28v5.75z" />
  <path class="st0"
    d="m235.49 35.07c0 7.03-5.46 12.29-12.69 12.29s-12.69-5.26-12.69-12.29c0-7.08 5.46-12.34 12.69-12.34s12.69 5.26 12.69 12.34zm-19.18 0c0 3.88 2.8 6.59 6.49 6.59s6.49-2.71 6.49-6.59c0-3.94-2.8-6.64-6.49-6.64s-6.49 2.7-6.49 6.64z" />
  <path class="st0"
    d="m257.58 39.05h6.29c-1.72 5.12-6.25 8.31-11.51 8.31-7.08 0-12.44-5.26-12.44-12.35 0-7.08 5.36-12.29 12.44-12.29 5.26 0 9.79 3.2 11.51 8.31h-6.29c-1.13-1.82-3.15-2.61-5.21-2.61-3.69 0-6.25 2.71-6.25 6.59 0 3.89 2.56 6.64 6.25 6.64 2.06 0.01 4.08-0.78 5.21-2.6z" />
  <path class="st0"
    d="m282.41 47.95c-3.1 6.79-4.08 8.8-9.93 8.8h-3.44v-5.41h2.66c1.77 0 3.05-0.98 4.18-3.44l0.84-1.92-10.38-22.62h6.84l6.98 15.05 6.98-15.05h6.59z" />
  <path class="st0"
    d="m318.12 52.92v-6.2h-17.7v6.2h-5.85v-11.61h3.15c1.52-1.77 2.16-4.92 2.16-8.21v-9.74h20.16v17.95h3.93v11.61zm-12.05-19.87c0 2.61-0.25 5.71-1.33 8.26h9.1v-12.54h-7.77z" />
  <path class="st0"
    d="m351.03 32.21v14.51h-6.2v-1.77c-1.67 1.67-4.57 2.41-7.57 2.41-5.71 0-9.2-2.9-9.2-7.92 0-5.9 5.56-7.43 11.02-7.43h5.75c0-2.71-2.51-3.79-5.46-3.79-2.61 0-4.62 0.79-5.46 2.8h-6.39c1.38-5.66 6.44-8.31 11.7-8.31 7.03 0.01 11.81 3.46 11.81 9.5zm-6.2 4.43h-5.75c-3 0-4.82 0.94-4.82 2.85 0 1.62 1.52 2.9 4.23 2.9 3.34 0 6.34-1.62 6.34-4.77z" />
  <path class="st0"
    d="m370.7 47.36c-2.61 0-5.26-0.89-6.84-2.46v11.85h-6.2v-33.39h6.2v1.77c1.57-1.57 4.23-2.41 6.84-2.41 7.52 0 11.95 5.9 11.95 12.29 0 6.4-4.43 12.35-11.95 12.35zm-0.49-18.93c-3.3 0-6.59 2.16-6.59 6.59s3.29 6.64 6.59 6.64c3.69 0 6.25-3.05 6.25-6.64-0.01-3.59-2.56-6.59-6.25-6.59z" />
  <path class="st0"
    d="m404.73 39.05h6.29c-1.72 5.12-6.25 8.31-11.51 8.31-7.08 0-12.44-5.26-12.44-12.35 0-7.08 5.36-12.29 12.44-12.29 5.26 0 9.79 3.2 11.51 8.31h-6.29c-1.13-1.82-3.15-2.61-5.21-2.61-3.69 0-6.25 2.71-6.25 6.59 0 3.89 2.56 6.64 6.25 6.64 2.07 0.01 4.08-0.78 5.21-2.6z" />
  <path class="st0" d="m437.59 28.77h-8.75v17.95h-6.2v-17.95h-8.71v-5.41h23.66z" />
  <path class="st0"
    d="m462.28 34.92c1.33 1.08 2.11 3 2.11 4.77 0 3.79-2.51 7.03-7.92 7.03h-14.46v-23.36h14.16c5.41 0 7.92 3.2 7.92 6.98 0.01 1.78-0.58 3.45-1.81 4.58zm-14.07-2.26h7.03c1.67 0 2.66-0.84 2.66-2.16 0-1.28-0.98-2.07-2.66-2.07h-7.03zm0 9h7.33c1.67 0 2.66-0.84 2.66-2.16 0-1.28-0.98-2.12-2.66-2.12h-7.33z" />
  <path class="st0"
    d="m494.2 35.07c0 7.03-5.46 12.29-12.69 12.29s-12.69-5.26-12.69-12.29c0-7.08 5.46-12.34 12.69-12.34s12.69 5.26 12.69 12.34zm-19.18 0c0 3.88 2.8 6.59 6.49 6.59s6.49-2.71 6.49-6.59c0-3.94-2.8-6.64-6.49-6.64s-6.49 2.7-6.49 6.64z" />
  <path class="st0"
    d="m212.67 104.39v-6.2h-17.7v6.2h-5.85v-11.61h3.15c1.52-1.77 2.16-4.92 2.16-8.21v-9.74h20.16v17.95h3.93v11.61zm-12.05-19.87c0 2.61-0.25 5.71-1.33 8.26h9.1v-12.54h-7.77z" />
  <path class="st0"
    d="m247.89 74.83v23.36h-6.2v-17.95h-7.62v4.33c0 5.85-1.18 13.62-9.15 13.62h-2.41v-5.75h1.77c3.44 0 3.59-4.72 3.59-8.07v-9.54z" />
  <path class="st0"
    d="m252.56 98.19 8.12-7.03c-4.67-0.88-6.79-4.28-6.79-8.06 0-4.48 2.9-8.26 9.34-8.26h12.74v23.36h-6.2v-6.84h-1.57l-7.72 6.84h-7.92zm10.87-17.95c-2.07 0-3.34 0.98-3.34 2.85 0 1.82 1.28 2.85 3.34 2.85h6.34v-5.71h-6.34z" />
  <path class="st0"
    d="m316.1 74.83v23.36h-6.2v-17.95h-7.62v4.33c0 5.85-1.18 13.62-9.15 13.62h-2.41v-5.75h1.77c3.44 0 3.59-4.72 3.59-8.07v-9.54z" />
  <path class="st0"
    d="m358.7 86.54c0 7.03-5.36 12.29-12.44 12.29-6.2 0-11.07-3.98-12.2-9.74h-4.43v9.1h-6.2v-23.36h6.2v8.85h4.48c1.23-5.61 6.05-9.49 12.15-9.49 7.07 0 12.44 5.27 12.44 12.35zm-18.69 0c0 3.88 2.61 6.59 6.25 6.59s6.25-2.71 6.25-6.59c0-3.93-2.61-6.64-6.25-6.64-3.65 0-6.25 2.7-6.25 6.64z" />
  <path class="st0"
    d="m385.45 104.39v-6.2h-17.7v6.2h-5.85v-11.61h3.15c1.52-1.77 2.16-4.92 2.16-8.21v-9.74h20.16v17.95h3.93v11.61zm-12.05-19.87c0 2.61-0.25 5.71-1.33 8.26h9.1v-12.54h-7.77z" />
  <path class="st0"
    d="m419.44 91.11c-1.77 4.72-6.49 7.72-11.51 7.72-7.28 0-12.64-5.26-12.64-12.34 0-6.98 5.16-12.29 12.39-12.29 7.18 0 12.15 5.31 12.15 12.2 0 0.79 0 1.38-0.1 2.16h-18c0.64 2.8 3.15 4.57 6.2 4.57 1.97 0 3.74-0.59 4.82-2.02zm-6.2-7.18c-0.39-2.71-2.7-4.43-5.56-4.43-2.8 0-5.41 1.77-5.8 4.43z" />
  <path class="st0"
    d="m449.24 74.83v23.36h-6.2v-14.8l-11.26 14.8h-6.2v-23.36h6.2v14.8l11.26-14.8zm-16.42-11.75c0.25 2.16 2.07 3.59 4.57 3.59 2.51 0 4.33-1.43 4.57-3.59h5.11c-0.34 5.07-4.48 8.71-9.69 8.71s-9.34-3.64-9.69-8.71z" />
  <path class="st0"
    d="m107.15 36.79c0 19.24 14.77 35.02 33.59 36.64v0.26c-25.01 1.65-44.78 22.44-44.78 47.86h47.98v-121.55c-20.32 0-36.79 16.47-36.79 36.79z" />
  <path class="st0"
    d="m59.17 36.79c0 19.24 14.77 35.02 33.59 36.64v0.26c-25.01 1.65-44.78 22.44-44.78 47.86h47.98v-121.55c-20.32 0-36.79 16.47-36.79 36.79z" />
  <path class="st0"
    d="m11.19 36.79c0 19.24 14.77 35.02 33.59 36.64v0.26c-25.01 1.65-44.78 22.44-44.78 47.86h47.98v-121.55c-20.32 0-36.79 16.47-36.79 36.79z" />
</svg>
